HIERARCHY
ROOT joint_Root
{
	OFFSET 0.0 0.0 0.0
	CHANNELS 6 Xposition Yposition Zposition Zrotation Xrotation Yrotation 
	JOINT Hips
	{
		OFFSET 4.5925 91.4895 -427.239
		CHANNELS 6 Xposition Yposition Zposition Zrotation Xrotation Yrotation 
		JOINT Spine
		{
			OFFSET 15.7357 0.0 0.0
			CHANNELS 6 Xposition Yposition Zposition Zrotation Xrotation Yrotation 
			JOINT Chest
			{
				OFFSET 8.98455 -0.406207 0.0
				CHANNELS 6 Xposition Yposition Zposition Zrotation Xrotation Yrotation 
				JOINT Neck
				{
					OFFSET 16.3773 0.0 0.0
					CHANNELS 6 Xposition Yposition Zposition Zrotation Xrotation Yrotation 
					JOINT Head
					{
						OFFSET 6.45672 0.0 0.0
						CHANNELS 6 Xposition Yposition Zposition Zrotation Xrotation Yrotation 
						End Site
						{
							OFFSET 0.0 0.0 0.0
						}
					}
				}
				JOINT Shoulder_L
				{
					OFFSET 12.9942 -0.242716 4.98039
					CHANNELS 6 Xposition Yposition Zposition Zrotation Xrotation Yrotation 
					JOINT UpperArm_L
					{
						OFFSET 5.34809 0.0 0.0
						CHANNELS 6 Xposition Yposition Zposition Zrotation Xrotation Yrotation 
						JOINT LowerArm_L
						{
							OFFSET 24.3286 1.87007e-05 0.0
							CHANNELS 6 Xposition Yposition Zposition Zrotation Xrotation Yrotation 
							JOINT Hand_L
							{
								OFFSET 22.2916 0.0 0.0
								CHANNELS 6 Xposition Yposition Zposition Zrotation Xrotation Yrotation 
								End Site
								{
									OFFSET 0.0 0.0 0.0
								}
							}
						}
					}
				}
				JOINT Shoulder_R
				{
					OFFSET 12.9945 -0.242716 -4.98039
					CHANNELS 6 Xposition Yposition Zposition Zrotation Xrotation Yrotation 
					JOINT UpperArm_R
					{
						OFFSET -5.34813 0.0 0.0
						CHANNELS 6 Xposition Yposition Zposition Zrotation Xrotation Yrotation 
						JOINT LowerArm_R
						{
							OFFSET -24.3289 0.000322201 0.0
							CHANNELS 6 Xposition Yposition Zposition Zrotation Xrotation Yrotation 
							JOINT Hand_R
							{
								OFFSET -22.2915 -0.000108084 0.0
								CHANNELS 6 Xposition Yposition Zposition Zrotation Xrotation Yrotation 
								End Site
								{
									OFFSET 0.0 0.0 0.0
								}
							}
						}
					}
				}
			}
		}
		JOINT UpperLeg_L
		{
			OFFSET -2.19248 -6.46944 0.0
			CHANNELS 6 Xposition Yposition Zposition Zrotation Xrotation Yrotation 
			JOINT LowerLeg_L
			{
				OFFSET 39.0811 0.0 -1.23785e-05
				CHANNELS 6 Xposition Yposition Zposition Zrotation Xrotation Yrotation 
				JOINT Foot_L
				{
					OFFSET 40.9854 0.0 -1.26872e-05
					CHANNELS 6 Xposition Yposition Zposition Zrotation Xrotation Yrotation 
					JOINT Toes_L
					{
						OFFSET 11.7543 0.0 0.0
						CHANNELS 6 Xposition Yposition Zposition Zrotation Xrotation Yrotation 
						End Site
						{
							OFFSET 0.0 0.0 0.0
						}
					}
				}
			}
		}
		JOINT UpperLeg_R
		{
			OFFSET -2.19251 6.46944 0.0
			CHANNELS 6 Xposition Yposition Zposition Zrotation Xrotation Yrotation 
			JOINT LowerLeg_R
			{
				OFFSET -39.0811 -0.00228153 -0.0401928
				CHANNELS 6 Xposition Yposition Zposition Zrotation Xrotation Yrotation 
				JOINT Foot_R
				{
					OFFSET -40.9854 0.0 0.0
					CHANNELS 6 Xposition Yposition Zposition Zrotation Xrotation Yrotation 
					JOINT Toes_R
					{
						OFFSET -11.7543 0.0 0.0
						CHANNELS 6 Xposition Yposition Zposition Zrotation Xrotation Yrotation 
						End Site
						{
							OFFSET 0.0 0.0 0.0
						}
					}
				}
			}
		}
	}
}
MOTION
Frames:	4
Frame Time:	0.0333333
0.000000 0.000000 0.000000 0.000000 0.000000 -0.000000 -0.060178 92.042100 -0.169581 90.131400 -9.547450 4.307840 15.735700 0.000005 -0.000001 74.018400 84.840500 -69.370500 8.984550 -0.406207 -0.000000 2.298400 -3.060230 9.350050 16.377300 -0.000001 -0.000001 8.696240 -0.165963 -1.982940 6.456720 -0.000001 -0.000000 0.815068 0.577575 -2.114760 12.994200 -0.242716 4.980390 -84.033400 -12.827300 -64.791000 5.348090 -0.000007 -0.000001 -42.646700 -64.581100 -78.190600 24.328600 0.000019 0.000005 3.389300 2.976590 -48.755000 22.291600 -0.000001 0.000005 15.167300 5.386110 -2.491420 12.994500 -0.242716 -4.980390 87.593500 8.388090 -73.928700 -5.348130 -0.000001 -0.000004 -55.225200 14.606200 2.487950 -24.328900 0.000322 -0.000009 0.053167 0.108983 -26.458700 -22.291500 -0.000108 -0.000004 19.723800 5.450140 -4.644730 -2.192480 -6.469440 -0.000000 -175.767000 -20.550400 -0.293392 39.081100 -0.000007 -0.000012 -0.101070 0.247973 22.175100 40.985400 -0.000006 -0.000013 0.425701 7.283210 -66.982100 11.754300 -0.000000 0.000003 -0.000159 -0.001522 -16.635300 -2.192510 6.469440 -0.000001 173.979000 21.685000 178.170000 -39.081100 -0.002282 -0.040193 -0.096393 0.234587 23.027600 -40.985400 0.000008 0.000006 3.257650 21.996200 -66.992800 -11.754300 -0.000006 -0.000006 -0.004155 -0.004952 -16.570700
0.000000 0.000000 0.000000 0.000000 0.000000 -0.000000 -0.354372 92.154600 -0.495167 90.081600 -8.701590 3.977840 15.735700 0.000005 -0.000001 75.224000 84.875600 -70.890200 8.984550 -0.406207 -0.000000 2.267860 -2.819420 8.716520 16.377300 -0.000001 -0.000001 7.687970 -0.211051 -1.849740 6.456720 -0.000001 -0.000000 0.543857 0.639065 -2.526680 12.994200 -0.242716 4.980390 -84.929600 -11.021900 -65.104300 5.348090 -0.000007 -0.000001 -35.305400 -61.716600 -66.976800 24.328600 0.000019 0.000005 3.801060 2.227020 -59.676900 22.291600 -0.000001 0.000005 14.992100 5.372190 -2.054570 12.994500 -0.242716 -4.980390 87.562900 8.424060 -73.800500 -5.348130 -0.000001 -0.000004 -56.010600 15.542100 1.844350 -24.328900 0.000322 -0.000009 -0.157738 -0.312831 -26.601900 -22.291500 -0.000108 -0.000004 19.680000 5.450130 -4.644370 -2.192480 -6.469440 -0.000000 -175.755000 -19.835900 -0.740504 39.081100 -0.000007 -0.000012 -0.096824 0.243847 21.656500 40.985400 -0.000006 -0.000013 0.245452 7.473200 -66.366000 11.754300 -0.000000 0.000003 -0.000148 -0.001433 -16.632000 -2.192510 6.469440 -0.000001 174.335000 22.717300 178.111000 -39.081100 -0.002282 -0.040193 -0.094008 0.236492 22.369000 -40.985400 0.000008 0.000006 3.372910 22.122000 -66.594200 -11.754300 -0.000006 -0.000006 -0.000342 -0.005571 -16.800100
0.000000 0.000000 0.000000 0.000000 0.000000 -0.000000 -0.666348 92.266200 -0.805354 90.031400 -7.766090 3.727460 15.735700 0.000005 -0.000001 76.369600 84.896500 -72.388300 8.984550 -0.406207 -0.000000 2.258290 -2.594580 8.007270 16.377300 -0.000001 -0.000001 6.683890 -0.296190 -1.683990 6.456720 -0.000001 -0.000000 0.330516 0.604950 -2.696760 12.994200 -0.242716 4.980390 -85.876400 -9.168920 -65.655800 5.348090 -0.000007 -0.000001 -29.420600 -57.307000 -56.338500 24.328600 0.000019 0.000005 4.444620 1.511420 -71.256000 22.291600 -0.000001 0.000005 14.825000 5.369960 -1.985550 12.994500 -0.242716 -4.980390 87.523000 8.526130 -73.734000 -5.348130 -0.000001 -0.000004 -56.807600 16.827400 1.254710 -24.328900 0.000322 -0.000009 -0.360935 -0.713043 -26.780300 -22.291500 -0.000108 -0.000004 19.499500 5.451790 -4.703770 -2.192480 -6.469440 -0.000000 -175.650000 -19.263200 -1.060730 39.081100 -0.000007 -0.000012 -0.093604 0.242748 21.086800 40.985400 -0.000006 -0.000013 0.088251 7.922640 -65.729500 11.754300 -0.000000 0.000003 -0.000161 -0.001540 -16.636000 -2.192510 6.469440 -0.000001 174.698000 23.785400 178.161000 -39.081100 -0.002282 -0.040193 -0.085677 0.223782 21.687000 -40.985400 0.000008 0.000006 3.531360 22.137500 -66.221400 -11.754300 -0.000006 -0.000006 -0.000313 -0.005104 -16.781100
0.000000 0.000000 0.000000 0.000000 0.000000 -0.000000 -0.958585 92.341500 -1.094200 89.947200 -6.846810 3.396310 15.735700 0.000005 -0.000001 77.897500 84.944100 -74.261600 8.984550 -0.406207 -0.000000 2.205950 -2.294670 7.309950 16.377300 -0.000001 -0.000001 5.575880 -0.453505 -1.415650 6.456720 -0.000001 -0.000000 0.104889 0.350872 -2.908570 12.994200 -0.242716 4.980390 -86.826700 -7.290890 -66.401100 5.348090 -0.000007 -0.000001 -25.837600 -50.950700 -47.050900 24.328600 0.000019 0.000005 5.210940 0.699650 -82.373600 22.291600 -0.000001 0.000005 14.404400 5.369140 -1.960010 12.994500 -0.242716 -4.980390 87.485400 8.618350 -73.666300 -5.348130 -0.000001 -0.000004 -57.591900 18.314700 0.687874 -24.328900 0.000322 -0.000009 -0.427820 -0.834738 -27.078900 -22.291500 -0.000108 -0.000004 19.378700 5.452000 -4.711140 -2.192480 -6.469440 -0.000000 -175.510000 -18.929100 -1.582180 39.081100 -0.000007 -0.000012 -0.090501 0.238384 20.788900 40.985400 -0.000006 -0.000013 -0.009316 8.565850 -65.239200 11.754300 -0.000000 0.000003 -0.000168 -0.001598 -16.638100 -2.192510 6.469440 -0.000001 175.104000 24.775400 178.025000 -39.081100 -0.002282 -0.040193 -0.084936 0.227564 21.197800 -40.985400 0.000008 0.000006 3.696930 22.179900 -65.954700 -11.754300 -0.000006 -0.000006 -0.000436 -0.007037 -16.859600
